<?xml version="1.0" encoding="UTF-8"?>
<svg width="91px" height="92px" viewBox="0 0 91 92" version="1.1" xmlns="http://www.w3.org/2000/svg" xmlns:xlink="http://www.w3.org/1999/xlink">
    <!-- Generator: Sketch 58 (84663) - https://sketch.com -->
    <title>Path</title>
    <desc>Created with Sketch.</desc>
    <g id="Page-1" stroke="none" stroke-width="1" fill="none" fill-rule="evenodd">
        <g id="noun_wrong_2818919" transform="translate(-4.000000, 0.000000)" fill="#000000" fill-rule="nonzero">
            <path d="M90.2,1.82 L50,42 L9.8,1.82 C8.6954305,0.7154305 6.9045695,0.7154305 5.8,1.82 C4.6954305,2.9245695 4.6954305,4.7154305 5.8,5.82 L46,46 L5.82,86.2 C4.71543058,87.3045695 4.71543062,89.0954304 5.82000008,90.1999999 C6.92456955,91.3045694 8.71543049,91.3045694 9.82,90.2 L50,50 L90.2,90.2 C90.7300337,90.7300184 91.4504493,91.0253888 92.2,91.02 C93.3402458,91.0265376 94.3713937,90.3433673 94.809957,89.2908154 C95.2485203,88.2382635 95.0075371,87.0250386 94.2,86.22 L54,46 L94.18,5.8 C95.2845694,4.69543049 95.2845694,2.90456956 94.1799999,1.80000009 C93.0754304,0.695430631 91.2845695,0.695430589 90.18,1.8 L90.2,1.82 Z" id="Path"></path>
        </g>
    </g>
</svg>