<?xml version="1.0" encoding="UTF-8"?>
<svg width="22px" height="24px" viewBox="0 0 22 24" version="1.1" xmlns="http://www.w3.org/2000/svg" xmlns:xlink="http://www.w3.org/1999/xlink">
    <!-- Generator: Sketch 58 (84663) - https://sketch.com -->
    <title>noun_Search_3350817</title>
    <desc>Created with Sketch.</desc>
    <g id="Page-1" stroke="none" stroke-width="1" fill="none" fill-rule="evenodd">
        <g id="noun_Search_3350817" fill="#000000" fill-rule="nonzero">
            <path d="M15.57,16.15 C18.8627896,12.6965576 18.8880152,7.27348876 15.6274952,3.7895633 C12.3669751,0.30563783 6.95412454,-0.0280693352 3.29034822,3.02896695 C-0.373428093,6.08600324 -1.01453583,11.4711024 1.8291144,15.3028619 C4.67276462,19.1346214 10.012669,20.0810531 14,17.46 L14,17.46 L20.25,23.71 L21.67,22.29 L15.57,16.15 Z M12.57,16.01 C9.39678104,17.9290928 5.28001922,17.0702409 3.1388367,14.0424409 C0.99765418,11.0146408 1.5597994,6.84698592 4.42666523,4.49468575 C7.29353107,2.14238558 11.4907227,2.40494354 14.0420867,5.09618448 C16.5934506,7.78742543 16.6318253,11.9926462 14.13,14.73 C13.6811344,15.225946 13.1623421,15.6537813 12.59,16 L12.57,16.01 Z" id="Shape"></path>
        </g>
    </g>
</svg>